<?xml version="1.0" standalone="no"?>
<!DOCTYPE svg PUBLIC "-//W3C//DTD SVG 20010904//EN"
 "http://www.w3.org/TR/2001/REC-SVG-20010904/DTD/svg10.dtd">
<svg version="1.0" xmlns="http://www.w3.org/2000/svg"
 width="1000.000000pt" height="1000.000000pt" viewBox="0 0 1000.000000 1000.000000"
 preserveAspectRatio="xMidYMid meet">
<metadata>
Created by potrace 1.16, written by Peter Selinger 2001-2019
</metadata>
<g transform="translate(0.000000,1000.000000) scale(0.100000,-0.100000)"
fill="#000000" stroke="none">
<path d="M1199 9975 c-14 -8 -34 -25 -43 -39 -15 -23 -16 -313 -16 -3762 0
-2204 4 -3750 9 -3768 72 -243 124 -364 212 -492 72 -104 251 -264 384 -343
103 -62 498 -264 675 -345 47 -22 146 -68 220 -104 74 -35 155 -73 180 -84 25
-11 198 -96 385 -188 187 -92 372 -182 410 -200 157 -73 290 -137 475 -229
107 -53 242 -118 300 -145 58 -27 204 -98 325 -158 171 -84 228 -108 260 -108
50 0 154 34 267 88 312 149 590 283 758 364 107 52 222 107 255 123 62 28 196
92 413 196 67 33 125 59 127 59 3 0 51 22 108 49 56 27 131 62 167 79 36 16
124 58 195 92 252 121 376 179 515 241 179 80 433 214 534 280 117 78 261 208
332 300 93 121 172 308 196 464 15 94 23 7554 8 7569 -5 5 -10 22 -10 37 0 23
-5 27 -37 33 -21 3 -1734 6 -3808 5 -3233 0 -3774 -2 -3796 -14z m7535 -104
c4 -5 7 -1681 7 -3723 1 -2737 -2 -3731 -10 -3783 -49 -301 -232 -544 -555
-739 -87 -53 -330 -176 -446 -226 -41 -18 -226 -105 -410 -193 -184 -87 -429
-203 -545 -257 -230 -107 -840 -396 -1255 -595 -372 -179 -480 -227 -520 -232
-29 -4 -69 13 -240 97 -113 57 -266 131 -340 165 -74 34 -211 100 -305 147
-93 46 -251 121 -350 167 -99 47 -297 143 -440 214 -143 71 -345 170 -450 219
-104 49 -248 117 -320 151 -244 115 -680 336 -761 386 -96 60 -257 200 -320
279 -49 62 -142 242 -174 338 -53 157 -50 -93 -50 3890 0 2030 2 3693 5 3695
10 11 7473 11 7479 0z"/>
<path d="M1483 6103 c2 -3393 3 -3561 21 -3633 49 -202 139 -365 280 -506 165
-165 260 -220 941 -542 317 -150 529 -252 1195 -574 91 -44 224 -109 295 -143
72 -34 247 -120 390 -190 317 -155 361 -175 384 -175 10 0 144 60 297 134 153
73 304 145 334 159 30 13 165 78 300 142 135 64 319 151 410 192 90 42 257
121 370 177 113 56 273 132 355 170 83 38 220 102 305 143 85 41 193 90 240
110 314 130 591 323 715 497 88 125 145 276 164 439 9 71 18 5270 13 6715 l-2
442 -3505 0 -3505 0 3 -3557z m3063 3278 c50 -23 106 -78 136 -134 20 -37 23
-56 23 -157 -1 -130 -16 -180 -76 -240 -80 -79 -215 -99 -322 -46 -100 49
-147 138 -147 281 0 170 75 280 215 316 42 11 122 1 171 -20z m-1856 -2 c87
-39 139 -113 160 -226 28 -155 -53 -322 -176 -364 -56 -19 -151 -17 -206 4
-68 26 -132 101 -158 184 -23 76 -25 128 -6 198 40 152 128 225 271 225 49 0
83 -7 115 -21z m1200 11 c82 -11 111 -27 148 -81 30 -44 25 -103 -13 -161
l-28 -41 31 -26 c34 -28 62 -85 62 -125 0 -41 -29 -101 -59 -124 -55 -40 -126
-53 -282 -50 l-144 3 -3 302 -2 302 37 4 c75 7 179 6 253 -3z m1382 1 c27 -6
26 -8 -74 -119 l-101 -114 16 -31 c8 -18 56 -97 106 -177 50 -79 91 -150 91
-157 0 -9 -16 -13 -52 -12 -93 2 -94 3 -168 137 -37 68 -72 128 -77 133 -6 6
-24 -6 -51 -35 l-42 -46 0 -89 0 -89 -56 -4 c-31 -1 -58 -1 -60 1 -2 2 -4 139
-4 303 l0 298 60 0 59 0 3 -127 3 -128 75 90 c98 118 144 163 172 168 33 6 69
6 100 -2z m594 0 c99 -12 123 -22 154 -68 37 -53 35 -127 -4 -177 l-28 -38 35
-29 c20 -16 41 -45 47 -65 27 -81 -21 -188 -96 -213 -45 -14 -295 -27 -348
-17 l-36 7 2 297 3 297 30 6 c46 10 152 10 241 0z m1254 -14 c43 -19 65 -42
85 -90 20 -48 19 -93 -5 -144 -15 -34 -29 -48 -67 -65 -26 -13 -50 -24 -52
-26 -3 -1 16 -24 42 -50 40 -41 137 -192 137 -214 0 -5 -31 -8 -68 -8 l-68 0
-60 96 c-82 133 -102 154 -153 154 l-40 0 -3 -122 -3 -123 -57 -3 -58 -3 0
305 0 305 23 4 c12 3 87 4 167 3 106 -2 154 -7 180 -19z m-5162 -233 l2 -242
140 -7 140 -7 0 -54 0 -54 -200 0 -200 0 0 305 0 306 58 -3 57 -3 3 -241z
m1172 184 c19 -99 77 -318 84 -318 2 0 25 86 52 190 l49 190 87 0 88 0 0 -299
0 -298 -46 -7 c-25 -3 -50 -3 -55 0 -5 3 -9 98 -10 212 l-1 207 -32 -125 c-18
-69 -41 -160 -51 -203 -20 -84 -32 -97 -84 -97 -33 0 -71 30 -71 55 0 8 -19
92 -42 187 l-43 173 -5 -205 -5 -205 -51 -3 c-35 -2 -53 1 -56 10 -3 7 -3 145
0 306 l5 292 87 0 87 0 13 -62z m3447 -236 c122 -325 120 -310 42 -311 -48 -1
-66 15 -87 79 l-19 55 -111 3 -111 3 -15 -28 c-7 -15 -19 -47 -25 -70 l-12
-43 -59 0 c-71 0 -71 1 -34 97 35 92 174 474 181 496 4 14 17 17 72 17 l66 0
112 -298z m1041 271 c11 -16 36 -73 56 -128 20 -55 63 -170 96 -255 32 -85 60
-164 62 -175 3 -18 -3 -20 -61 -20 l-64 0 -22 65 -22 65 -112 0 -113 0 -23
-60 c-23 -64 -34 -71 -114 -74 -32 -1 -33 0 -27 30 3 18 42 127 85 243 43 116
84 229 91 251 23 75 34 85 95 85 47 0 56 -3 73 -27z m642 -23 l0 -50 -54 0
c-29 0 -67 -3 -85 -6 l-31 -6 -2 -246 -3 -246 -55 3 c-30 1 -58 5 -62 7 -5 3
-8 113 -8 245 l0 239 -80 0 -80 0 0 55 0 55 230 0 230 0 0 -50z m-357 -857
c-270 -2 -716 -2 -990 0 -274 1 -52 2 492 2 545 0 769 -1 498 -2z m-2833 -175
c42 -135 70 -219 97 -295 l15 -43 259 0 c219 0 259 -2 259 -14 0 -18 -88 -86
-274 -215 -75 -52 -136 -97 -136 -100 0 -3 36 -116 80 -251 43 -134 77 -246
74 -249 -13 -13 -165 93 -413 287 l-25 19 -45 -34 c-25 -19 -88 -67 -140 -106
-186 -141 -253 -182 -238 -144 19 50 147 461 147 472 0 8 -71 64 -157 126
-181 128 -243 176 -243 190 0 5 104 9 255 9 l255 0 10 23 c5 12 36 110 70 217
33 107 65 205 70 218 21 47 37 24 80 -110z m-20 -1127 c44 -44 60 -118 69
-318 9 -193 21 -245 62 -258 34 -11 61 27 98 141 57 178 111 254 182 254 25 0
28 -5 39 -52 75 -327 -90 -624 -383 -692 -38 -9 -88 -16 -112 -16 -63 0 -173
28 -227 57 -139 76 -243 245 -255 416 -7 99 15 287 33 287 28 0 86 -74 130
-168 25 -53 59 -125 76 -159 32 -69 57 -90 87 -74 32 18 42 70 51 261 4 102
13 199 19 215 21 53 75 135 89 135 7 0 26 -13 42 -29z m585 -693 c351 -101
723 -349 955 -633 180 -221 328 -496 374 -694 l14 -61 -41 -22 c-96 -49 -208
-203 -242 -334 -18 -68 -20 -211 -4 -286 28 -131 107 -250 219 -329 55 -38 59
-43 53 -73 -21 -111 -135 -351 -247 -521 -119 -180 -317 -389 -483 -507 -209
-150 -561 -311 -729 -333 l-49 -7 -53 67 c-99 123 -230 185 -391 185 -155 0
-271 -50 -377 -163 l-66 -69 -66 17 c-212 53 -511 213 -711 380 -294 245 -552
631 -632 944 l-20 76 23 15 c133 88 215 248 225 440 10 188 -47 345 -169 463
l-72 69 18 72 c66 258 278 601 509 823 216 207 549 409 779 473 92 25 105 25
114 -2 26 -85 169 -201 297 -239 92 -28 229 -30 308 -4 117 38 229 130 292
239 27 47 29 48 65 41 20 -3 69 -15 107 -27z m2742 -2701 c-1 -457 -2 -83 -2
833 0 916 1 1290 2 832 2 -457 2 -1207 0 -1665z m-5404 1357 c129 -33 220 -95
288 -196 140 -206 138 -467 -4 -670 -98 -141 -255 -209 -433 -188 -186 22
-184 21 -184 43 0 11 10 41 21 65 27 55 87 95 184 123 101 28 154 55 167 85
29 62 -36 93 -220 105 -178 12 -234 28 -291 85 l-44 45 28 29 c58 60 110 74
315 80 155 4 190 8 213 23 59 39 21 89 -128 171 -58 32 -122 72 -141 88 -39
34 -68 83 -59 98 19 31 192 39 288 14z m4454 -30 c21 -6 21 -8 8 -33 -23 -46
-90 -98 -186 -147 -121 -61 -167 -92 -185 -125 -32 -63 9 -79 203 -79 233 0
366 -33 395 -96 11 -24 9 -29 -29 -64 -54 -51 -116 -68 -283 -80 -203 -15
-247 -26 -270 -71 -25 -46 31 -85 171 -120 132 -33 190 -72 223 -151 26 -62
33 -59 -148 -78 -209 -23 -345 18 -467 139 -83 83 -124 165 -146 289 -15 85
-15 99 0 184 41 232 186 390 402 438 41 10 273 5 312 -6z m222 -2105 c-11 -67
-32 -130 -85 -252 -24 -55 -44 -104 -44 -108 0 -5 90 -9 200 -9 118 0 200 -4
200 -9 0 -12 -69 -65 -255 -196 -77 -54 -185 -131 -240 -171 -91 -66 -101 -71
-113 -56 -8 9 -55 86 -105 170 -72 122 -97 157 -123 170 -38 18 -64 66 -45 85
22 22 596 425 607 426 8 1 9 -15 3 -50z m-4864 -209 c271 -189 294 -207 295
-234 0 -32 -24 -66 -48 -66 -8 0 -32 10 -54 22 l-40 23 -16 -23 c-9 -12 -50
-79 -90 -150 -40 -70 -81 -138 -92 -151 l-18 -25 -43 29 c-24 15 -145 103
-269 194 l-225 166 199 7 c109 4 201 9 203 12 3 2 -18 58 -45 123 -50 118 -75
194 -87 267 -6 38 -6 39 14 25 12 -8 154 -106 316 -219z m2354 99 c193 -44
332 -232 361 -491 9 -80 1 -207 -16 -251 -15 -39 -97 -3 -141 63 -13 18 -39
83 -58 144 -39 124 -63 171 -94 179 -54 14 -81 -72 -81 -268 0 -155 -16 -239
-55 -295 -37 -54 -50 -58 -81 -29 -58 54 -72 110 -84 345 -11 222 -28 276 -80
259 -13 -4 -36 -40 -66 -103 -25 -53 -61 -129 -79 -167 -30 -63 -96 -145 -116
-145 -4 0 -12 23 -18 51 -98 456 198 800 608 708z m-2009 -508 c306 -202 722
-388 1075 -481 594 -157 1236 -139 1822 51 322 105 572 227 926 455 72 47 137
83 145 82 12 -3 301 -482 302 -501 0 -24 -412 -266 -645 -378 -482 -231 -941
-366 -1425 -420 -171 -19 -554 -17 -730 5 -585 70 -1114 268 -1695 631 -125
78 -245 163 -245 174 0 3 44 83 98 176 183 318 183 317 200 312 10 -2 87 -50
172 -106z"/>
<path d="M4394 9289 c-99 -29 -146 -194 -90 -315 19 -42 32 -55 70 -74 97 -46
190 15 211 137 26 159 -71 287 -191 252z"/>
<path d="M2536 9290 c-101 -31 -149 -195 -91 -318 21 -44 32 -56 71 -73 62
-28 106 -19 155 30 99 98 71 308 -48 357 -36 16 -46 16 -87 4z"/>
<path d="M3724 9276 c-3 -7 -4 -38 -2 -67 l3 -54 45 -3 c103 -8 170 21 170 74
0 40 -51 64 -138 64 -52 0 -74 -4 -78 -14z"/>
<path d="M3725 9037 c-4 -8 -5 -43 -3 -78 l3 -64 75 -3 c88 -4 114 2 140 28
28 28 25 71 -6 101 -22 21 -37 24 -115 27 -71 3 -90 1 -94 -11z"/>
<path d="M5714 9276 c-3 -7 -4 -38 -2 -67 l3 -54 87 0 c104 0 131 16 126 74
-3 31 -8 38 -38 48 -50 17 -169 17 -176 -1z"/>
<path d="M5714 9036 c-3 -7 -4 -42 -2 -77 l3 -64 96 0 c110 0 139 14 139 67 0
66 -39 88 -157 88 -53 0 -75 -4 -79 -14z"/>
<path d="M6870 9216 l0 -76 88 0 c104 0 132 16 132 75 0 50 -32 68 -136 73
l-84 5 0 -77z"/>
<path d="M6377 9193 c-16 -42 -47 -142 -47 -155 0 -4 31 -8 69 -8 l70 0 -31
93 c-17 50 -34 96 -38 100 -4 5 -14 -9 -23 -30z"/>
<path d="M7511 9138 c-17 -51 -31 -96 -31 -101 0 -4 32 -7 71 -7 53 0 69 3 66
13 -3 6 -18 48 -32 92 -15 44 -31 84 -35 88 -4 5 -22 -33 -39 -85z"/>
<path d="M4899 6189 c-162 -17 -359 -75 -526 -155 -310 -148 -601 -441 -741
-744 -285 -618 -149 -1327 346 -1802 220 -211 487 -348 796 -410 159 -32 433
-32 591 0 651 130 1134 605 1272 1252 28 131 25 469 -5 603 -70 315 -211 575
-432 797 -344 345 -814 511 -1301 459z m496 -68 c208 -48 374 -118 535 -225
470 -315 722 -828 679 -1387 -26 -352 -149 -643 -377 -896 -76 -84 -213 -208
-255 -229 -27 -14 -27 -14 -15 5 11 17 8 25 -17 55 -17 19 -48 56 -69 81 l-39
46 64 62 c166 162 278 365 330 597 24 108 26 317 4 422 -49 234 -161 442 -327
605 -154 153 -289 235 -493 299 l-120 37 -106 104 c-58 57 -111 103 -117 103
-7 0 -56 -40 -109 -88 -54 -49 -108 -94 -119 -100 -12 -6 -75 -29 -141 -51
-66 -21 -144 -51 -174 -66 -105 -53 -225 -140 -314 -230 -230 -229 -355 -529
-355 -851 0 -299 110 -568 317 -771 46 -45 83 -86 83 -90 0 -4 -28 -39 -63
-77 l-62 -68 -50 39 c-81 64 -222 221 -290 323 -121 181 -203 381 -241 585
-28 149 -26 433 4 572 129 598 599 1070 1188 1192 139 29 147 30 364 26 152
-3 215 -8 285 -24z m-215 -490 c78 -81 93 -91 146 -106 148 -41 274 -97 398
-180 227 -150 401 -428 452 -720 22 -121 14 -329 -15 -440 -48 -181 -211 -447
-337 -548 -32 -26 -59 -52 -59 -57 0 -5 29 -44 64 -86 l64 -77 -34 -29 c-62
-52 -67 -50 -184 56 l-105 96 -242 2 -243 1 250 9 c286 11 274 7 399 116 136
119 243 262 299 404 54 133 62 181 62 358 0 142 -3 177 -23 250 -48 174 -133
321 -266 458 -135 140 -260 213 -466 272 -102 30 -120 41 -207 121 -66 61 -77
68 -92 56 -9 -7 -41 -35 -71 -61 -83 -73 -119 -94 -201 -117 -164 -45 -332
-143 -453 -265 -124 -123 -221 -291 -266 -459 -28 -102 -38 -295 -20 -403 42
-263 220 -532 454 -688 l53 -35 224 -8 224 -8 -210 -1 -211 -2 -103 -110 -103
-110 -27 16 c-16 9 -46 31 -67 49 l-39 33 56 63 c30 35 58 69 62 76 4 6 -25
39 -74 80 -137 115 -244 277 -303 458 -70 213 -58 499 29 728 131 348 425 613
777 703 89 23 122 42 211 123 42 39 85 71 94 71 9 0 56 -40 103 -89z m-48
-176 c59 -61 69 -67 131 -81 40 -9 67 -21 67 -29 0 -14 -93 -159 -108 -169 -6
-3 -24 19 -42 50 -31 56 -166 197 -180 189 -4 -2 -10 -43 -13 -91 -2 -47 -9
-90 -14 -95 -5 -5 -40 21 -82 61 l-74 69 58 27 c32 16 83 52 114 81 31 29 61
52 68 53 7 0 40 -29 75 -65z m8 -220 c53 -69 56 -89 25 -159 -14 -32 -31 -81
-37 -110 l-11 -51 -19 55 c-11 30 -20 81 -21 113 -2 57 -2 58 -19 37 -24 -30
-23 -70 7 -171 13 -46 25 -101 25 -122 0 -30 3 -37 18 -35 13 2 18 -5 20 -34
6 -74 -39 -34 -100 90 -35 70 -42 94 -46 160 -4 77 17 247 40 321 l11 35 34
-40 c19 -21 52 -61 73 -89z m-273 42 c84 -78 88 -87 88 -222 0 -116 1 -123 38
-205 36 -84 51 -180 27 -180 -20 0 -156 140 -188 193 -23 37 -38 81 -47 134
-15 81 -19 241 -9 305 6 34 8 36 27 27 11 -6 40 -30 64 -52z m640 12 c81 -39
201 -128 282 -210 65 -64 141 -171 141 -196 0 -17 -50 -17 -165 2 -128 21
-233 19 -302 -5 -31 -11 -58 -18 -61 -16 -2 3 5 33 16 68 11 35 24 82 27 106
8 49 -9 162 -36 240 l-19 54 28 -6 c15 -4 55 -20 89 -37z m-127 -12 c33 -73
45 -178 31 -265 -14 -96 -45 -163 -104 -228 -44 -48 -49 -51 -92 -50 -56 1
-63 12 -72 99 -10 114 22 201 136 372 34 50 61 96 61 103 0 27 22 10 40 -31z
m-775 -104 c-12 -190 17 -295 114 -411 36 -44 51 -68 46 -80 -6 -15 -9 -14
-26 8 -71 90 -104 121 -156 147 -56 27 -65 28 -225 31 -93 2 -168 6 -168 8 0
34 100 164 198 255 69 65 191 149 215 149 5 0 6 -48 2 -107z m117 32 c28 -49
53 -255 29 -241 -5 3 -15 29 -21 57 -9 35 -15 47 -21 38 -17 -27 -8 -75 23
-129 17 -30 44 -77 59 -105 49 -86 35 -127 -25 -74 -46 40 -100 129 -120 198
-16 55 -23 300 -9 314 11 11 66 -27 85 -58z m1049 -346 c85 -11 156 -23 158
-25 8 -8 -83 -94 -134 -127 -41 -27 -58 -32 -105 -31 -30 1 -82 9 -114 19 -58
17 -59 18 -35 30 36 20 141 45 185 45 37 1 38 2 20 15 -11 8 -34 15 -52 15
-35 0 -233 -59 -302 -91 -47 -21 -97 -25 -108 -8 -10 17 72 94 137 129 102 54
142 57 350 29z m-1276 -24 c86 -18 157 -65 204 -135 19 -27 32 -52 29 -55 -8
-8 -189 60 -262 99 -74 39 -102 44 -132 21 -18 -14 -17 -14 14 -15 35 0 85
-18 116 -42 17 -13 13 -16 -49 -31 -73 -18 -94 -13 -143 33 -23 21 -92 123
-92 135 0 11 249 4 315 -10z m-237 -143 c24 -24 42 -45 40 -47 -17 -15 -185
-85 -205 -85 -15 0 17 159 45 216 l17 36 30 -38 c16 -22 49 -58 73 -82z m1732
61 c42 -112 52 -187 47 -348 -5 -158 -26 -252 -66 -305 -17 -21 -21 -22 -36
-10 -9 7 -25 31 -36 51 -10 21 -24 41 -30 45 -8 4 -33 -16 -64 -52 l-53 -59
-21 25 c-11 14 -30 40 -42 58 -11 17 -23 32 -25 32 -3 0 -27 -24 -55 -52 l-49
-53 -20 27 c-11 14 -29 36 -38 49 l-18 22 -53 -53 -52 -52 -49 53 -49 54 -41
-47 c-23 -27 -47 -48 -55 -48 -7 0 -29 20 -50 45 -27 34 -35 52 -31 69 7 29
135 226 147 226 5 0 58 -12 117 -27 141 -36 296 -38 386 -5 69 26 205 103 231
132 25 27 14 36 -76 60 -84 23 -149 49 -149 61 0 4 26 23 58 43 31 19 75 53
97 75 21 23 42 41 46 41 4 0 17 -26 29 -57z m-1050 -78 c15 -8 39 -28 52 -45
l23 -29 63 41 c80 53 150 63 176 27 36 -52 12 -125 -96 -296 -42 -65 -87 -139
-102 -165 -15 -27 -30 -48 -34 -48 -9 0 -219 320 -232 354 -22 59 -9 134 29
163 22 17 86 16 121 -2z m730 -30 c41 -14 120 -42 175 -61 54 -19 101 -37 104
-39 7 -7 -40 -42 -99 -74 -144 -77 -284 -90 -472 -45 -115 28 -120 32 -94 83
l15 28 59 -15 c51 -14 72 -14 161 -2 80 10 112 11 153 1 28 -6 53 -10 55 -8 2
2 -6 12 -18 23 -20 17 -36 19 -210 16 l-189 -2 0 55 c0 59 -3 56 70 69 14 3
68 3 120 1 73 -2 114 -9 170 -30z m-1025 -3 c70 -27 83 -40 94 -93 6 -28 15
-59 21 -69 8 -15 3 -21 -38 -38 -218 -94 -482 -71 -600 51 l-34 35 39 12 c21
7 85 33 143 57 173 74 272 86 375 45z m-362 -269 c87 -30 210 -25 338 15 161
50 153 52 222 -48 80 -116 147 -231 141 -242 -9 -14 -37 8 -74 57 l-35 46 -50
-56 -50 -57 -39 52 -40 52 -48 -52 -48 -53 -29 39 c-49 68 -56 71 -88 34 -16
-18 -32 -39 -36 -46 -14 -24 -34 -15 -76 33 l-42 47 -49 -49 c-55 -54 -56 -54
-95 18 -18 32 -22 33 -47 11 -21 -20 -20 -22 -42 83 -9 40 -16 108 -16 152 l0
81 75 -49 c41 -27 99 -58 128 -68z m96 -284 l43 -50 49 53 c44 48 50 51 60 35
6 -10 25 -34 42 -54 l31 -35 43 49 43 48 44 -48 43 -48 47 53 47 53 49 -55 49
-54 23 20 c13 12 28 19 35 17 7 -2 19 12 27 31 8 20 19 36 25 36 5 0 28 -22
51 -50 23 -27 46 -50 51 -50 5 0 30 21 54 48 l45 47 46 -47 c25 -27 48 -48 52
-48 3 0 28 21 54 47 l48 47 17 -24 c10 -13 29 -38 43 -54 l26 -29 39 49 c22
27 42 53 46 58 4 4 28 -19 52 -53 l45 -61 55 61 56 61 24 -39 c50 -80 57 -103
37 -133 -9 -13 -12 -12 -22 4 -10 17 -16 14 -69 -45 l-59 -64 -22 26 c-13 14
-34 40 -48 58 l-25 32 -40 -50 c-22 -28 -45 -51 -52 -51 -6 0 -26 20 -44 45
l-33 46 -46 -46 c-25 -25 -53 -45 -62 -45 -10 0 -34 20 -54 45 l-38 44 -53
-46 -54 -46 -50 56 -50 57 -55 -58 -54 -57 -50 55 -51 55 -40 -47 c-23 -27
-47 -48 -54 -48 -7 0 -28 20 -48 45 l-35 46 -38 -46 c-21 -25 -44 -45 -50 -45
-7 0 -29 20 -50 45 -20 25 -40 45 -45 45 -4 0 -22 -20 -40 -45 -18 -25 -37
-45 -44 -45 -6 0 -31 20 -55 45 l-44 45 -43 -42 c-42 -41 -43 -41 -63 -23 -25
23 -100 170 -100 196 0 30 18 22 48 -21 15 -21 32 -39 37 -40 6 0 31 20 55 45
24 25 47 45 50 45 3 0 25 -23 49 -51z m205 -271 l46 -53 45 50 44 50 45 -47
45 -48 46 48 45 47 20 -23 c11 -13 28 -36 39 -50 l20 -27 46 53 c26 28 50 52
55 52 4 0 27 -24 51 -54 l44 -54 52 56 53 57 54 -58 54 -58 49 52 50 52 48
-52 49 -52 51 51 51 50 33 -47 34 -47 -59 -55 c-32 -30 -82 -65 -110 -78 l-52
-24 -484 3 -484 3 -58 35 c-32 19 -87 63 -123 96 l-66 62 19 26 c11 14 22 26
26 26 4 0 19 -18 33 -40 14 -22 32 -40 39 -40 8 0 31 20 52 45 20 25 40 45 44
45 5 0 29 -24 54 -52z m662 -338 l303 0 48 -41 c114 -98 184 -172 171 -180
-27 -18 -216 -89 -288 -108 -197 -54 -456 -71 -635 -42 -154 24 -443 119 -453
149 -2 6 46 61 106 123 l110 112 167 -6 c93 -4 304 -7 471 -7z"/>
<path d="M6995 2246 c-18 -13 -16 -18 32 -102 27 -49 56 -106 64 -127 12 -34
11 -39 -6 -56 -54 -52 -92 -26 -172 114 -26 47 -53 85 -59 85 -5 0 -19 -6 -29
-14 -18 -13 -16 -17 31 -101 27 -48 66 -107 87 -131 34 -38 44 -44 78 -44 77
0 139 54 139 121 0 25 -13 63 -39 111 -90 171 -90 171 -126 144z"/>
<path d="M3078 2233 c-16 -19 -136 -210 -158 -252 -11 -21 -10 -26 6 -38 27
-20 40 -16 53 15 7 15 21 38 32 51 l20 24 45 -21 c77 -38 140 -27 169 28 34
66 11 122 -72 174 -65 41 -74 43 -95 19z"/>
<path d="M6722 2099 c-29 -11 -26 -23 30 -121 45 -81 71 -146 64 -165 -7 -18
-46 -16 -68 4 -18 16 -20 15 -40 -5 l-22 -22 23 -24 c65 -69 171 -24 171 74 0
29 -97 232 -123 257 -8 7 -20 8 -35 2z"/>
<path d="M3245 1956 l-130 -124 27 -12 c23 -11 30 -9 60 13 l33 26 50 -27 c49
-27 50 -28 51 -76 1 -41 5 -51 22 -59 12 -6 25 -7 29 -3 4 3 19 84 35 178 25
159 26 174 11 190 -31 35 -55 21 -188 -106z"/>
<path d="M6510 1996 c-94 -39 -170 -77 -170 -85 0 -4 6 -15 13 -25 11 -16 15
-16 49 -1 21 8 39 15 41 15 2 0 30 -57 63 -127 32 -71 59 -130 61 -132 6 -9
53 11 53 22 0 8 -25 69 -55 138 -51 114 -54 125 -38 136 9 7 22 13 29 13 20 0
36 28 29 50 -8 25 -7 25 -75 -4z"/>
<path d="M3515 1989 c-5 -15 -2 -25 7 -30 8 -5 25 -17 38 -27 l24 -19 -58
-127 c-32 -70 -57 -129 -55 -130 11 -9 51 -27 54 -24 1 2 30 61 63 131 l61
128 37 -16 c44 -18 64 -14 64 15 0 17 -21 31 -102 70 -57 28 -108 50 -115 50
-6 0 -15 -10 -18 -21z"/>
<path d="M3739 1808 c-52 -134 -64 -190 -47 -224 20 -41 61 -66 117 -72 48 -4
53 -3 89 34 26 26 49 65 69 119 46 119 49 141 23 155 -12 7 -26 8 -30 3 -5 -4
-25 -49 -44 -100 -53 -140 -62 -153 -96 -153 -17 0 -39 9 -51 21 -27 27 -21
71 28 193 35 85 35 90 18 102 -10 8 -24 14 -30 14 -6 0 -27 -42 -46 -92z"/>
<path d="M6220 1877 c-25 -12 -25 -13 -28 -194 -2 -101 0 -183 5 -186 5 -3 20
0 34 6 18 10 25 23 29 56 5 43 6 45 59 63 l55 18 31 -30 c35 -34 43 -36 70
-16 17 12 11 22 -84 137 -124 151 -138 162 -171 146z"/>
<path d="M4036 1778 c-7 -27 -2 -32 47 -48 29 -9 37 -16 32 -29 -18 -47 -78
-262 -74 -266 3 -2 16 -6 29 -7 22 -3 27 6 69 133 l46 135 44 -9 c46 -9 64 1
58 32 -2 15 -74 43 -167 67 -73 18 -77 18 -84 -8z"/>
<path d="M5937 1784 c-26 -8 -51 -22 -54 -31 -6 -16 73 -311 88 -327 5 -6 18
-5 33 2 24 11 24 12 10 58 -21 72 -19 77 35 97 53 18 101 66 101 98 0 33 -37
94 -65 107 -34 16 -88 14 -148 -4z"/>
<path d="M5662 1711 c-11 -6 -11 -20 -3 -66 6 -32 11 -62 11 -66 0 -5 -17 -11
-37 -14 -21 -4 -50 -9 -64 -11 -26 -5 -27 -3 -39 60 -12 63 -14 66 -41 66 -36
0 -35 4 -4 -166 36 -194 32 -184 67 -184 33 0 33 -2 12 117 -5 29 -3 34 22 43
15 6 44 12 63 13 l35 2 13 -65 c15 -74 20 -81 51 -69 28 11 28 14 -8 193 -17
82 -30 150 -30 152 0 7 -35 4 -48 -5z"/>
<path d="M4406 1693 c-13 -45 -48 -314 -43 -328 4 -8 15 -15 26 -15 20 0 37
39 43 100 3 23 6 25 50 22 112 -7 166 36 155 122 -9 66 -53 93 -179 111 -39 5
-47 3 -52 -12z"/>
<path d="M4732 1651 c-3 -9 -36 -86 -73 -171 -68 -158 -69 -170 -23 -170 16 0
26 11 38 41 14 35 20 40 39 35 12 -3 41 -6 64 -6 40 0 43 -2 54 -39 9 -32 17
-40 41 -43 16 -3 30 -2 32 1 2 3 -13 67 -34 141 -21 74 -43 154 -49 176 -10
38 -15 42 -47 46 -26 3 -38 0 -42 -11z"/>
<path d="M5354 1643 c3 -16 9 -76 12 -136 6 -95 5 -109 -11 -127 -23 -25 -67
-26 -89 -1 -18 20 -36 109 -36 181 0 74 -8 90 -43 90 l-30 0 7 -100 c13 -190
49 -250 151 -250 43 0 60 5 83 25 40 33 46 76 32 206 -14 137 -15 139 -52 139
-28 0 -30 -2 -24 -27z"/>
<path d="M4888 1625 c-7 -32 -3 -35 47 -35 l42 0 6 -142 c4 -77 8 -142 9 -144
2 -1 14 -4 28 -6 l25 -3 3 148 3 147 44 0 c43 0 45 1 45 30 l0 30 -124 0 -124
0 -4 -25z"/>
</g>
</svg>
